<svg width="512" height="512" viewBox="0 0 512 512" fill="none" xmlns="http://www.w3.org/2000/svg">
  <rect width="512" height="512" rx="128" fill="#ef4444"/>
  <path d="M256 96C256 96 192 160 192 224C192 259.3 220.7 288 256 288C291.3 288 320 259.3 320 224C320 160 256 96 256 96Z" fill="white"/>
  <path d="M256 240C256 240 224 272 224 304C224 322.8 239.2 338 258 338C276.8 338 292 322.8 292 304C292 272 256 240 256 240Z" fill="#fbbf24"/>
  <ellipse cx="256" cy="368" rx="128" ry="32" fill="#991b1b"/>
  <text x="256" y="440" font-family="sans-serif" font-size="48" font-weight="bold" fill="white" text-anchor="middle">消火確認</text>
</svg>
